<svg width="40" height="44" viewBox="0 0 53 44" fill="none" xmlns="http://www.w3.org/2000/svg">
                <path fill-rule="evenodd" clip-rule="evenodd" d="M52.673 5.92685C51.1897 8.12682 49.3964 10.0012 47.2932 11.5502C47.3153 11.8645 47.3264 12.3359 47.3264 12.9645C47.3264 15.8828 46.9058 18.7954 46.0645 21.7025C45.2232 24.6096 43.9446 27.3988 42.2288 30.0702C40.513 32.7416 38.4707 35.1043 36.1018 37.1583C33.7329 39.2124 30.877 40.8511 27.5339 42.0746C24.1909 43.298 20.6155 43.9097 16.8075 43.9097C10.8077 43.9097 5.31728 42.2822 0.335938 39.0272C1.11081 39.117 1.97423 39.1619 2.92622 39.1619C7.90757 39.1619 12.3464 37.6129 16.243 34.515C13.9183 34.4701 11.8373 33.7462 9.9997 32.3431C8.16214 30.9401 6.90021 29.1498 6.2139 26.9723C6.94449 27.0846 7.61973 27.1407 8.23963 27.1407C9.19162 27.1407 10.1325 27.0172 11.0624 26.7703C8.58278 26.254 6.52939 25.0025 4.90215 23.0158C3.27491 21.0291 2.4613 18.7225 2.4613 16.096V15.9613C3.96677 16.8144 5.58292 17.2746 7.30979 17.3419C5.84859 16.3542 4.6863 15.0634 3.82286 13.4695C2.95943 11.8757 2.52772 10.1472 2.52772 8.28394C2.52772 6.30847 3.01478 4.47893 3.98891 2.79529C6.66776 6.14013 9.92773 8.81709 13.7689 10.8262C17.6101 12.8354 21.7224 13.9522 26.106 14.1767C25.9289 13.3236 25.8403 12.493 25.8403 11.6849C25.8403 8.67678 26.8864 6.11206 28.9785 3.99067C31.0707 1.86928 33.6001 0.808594 36.5667 0.808594C39.6662 0.808594 42.2786 1.95346 44.404 4.24321C46.8172 3.77179 49.0865 2.89631 51.2118 1.61674C50.3927 4.19833 48.8208 6.19623 46.4962 7.61049C48.5551 7.386 50.6141 6.8248 52.673 5.92685Z" fill="#1DA1F2"/>
                </svg>